<svg width="68" height="96" viewBox="0 0 68 96" fill="none" xmlns="http://www.w3.org/2000/svg">
<path fill-rule="evenodd" clip-rule="evenodd" d="M34 4.35948e-05C34.8203 -0.00463096 35.6144 0.367644 36.1175 1.03419L56.9278 28.6057C57.1421 28.8896 57.2929 29.2138 57.3704 29.5575L67.4396 74.1698C67.6747 75.2115 67.21 76.2842 66.2782 76.8504L35.3987 95.6145C34.9695 95.8753 34.4837 96.0028 34 96C33.5163 96.0028 33.0305 95.8753 32.6013 95.6145L1.72183 76.8504C0.790043 76.2842 0.325276 75.2115 0.56039 74.1698L10.6296 29.5575C10.7071 29.2138 10.8579 28.8896 11.0722 28.6057L31.8825 1.03419C32.3856 0.367639 33.1797 -0.00463626 34 4.35948e-05ZM31.3797 10.2537L16.0575 30.554L19.6031 41.3521L31.3797 21.1983V10.2537ZM34 26.961L21.7573 47.9125L29.7271 72.184H38.2729L46.2427 47.9125L34 26.961ZM49.7429 53.9027L43.74 72.184H60.4253L49.7429 53.9027ZM55.8327 77.2359H42.0812L38.6534 87.675L55.8327 77.2359ZM34 85.1967L36.614 77.2359H31.386L34 85.1967ZM24.26 72.184L18.2571 53.9027L7.57472 72.184H24.26ZM9.3335 58.927L16.1029 47.3422L13.6407 39.8437L9.3335 58.927ZM12.1673 77.2359H25.9188L29.3466 87.675L12.1673 77.2359ZM58.6665 58.927L51.8971 47.3422L54.3593 39.8437L58.6665 58.927ZM51.9425 30.554L48.3969 41.3521L36.6203 21.1983V10.2537L51.9425 30.554Z" fill="#111111"/>
</svg>
