<svg width="25" height="24" viewBox="0 0 25 24" fill="none" xmlns="http://www.w3.org/2000/svg">
<rect width="24" height="24" transform="translate(0.75)" fill="black"/>
<path d="M22.0306 18.424C21.6827 19.2275 21.271 19.9672 20.794 20.6472C20.1438 21.5743 19.6114 22.216 19.2011 22.5724C18.565 23.1573 17.8836 23.4568 17.1539 23.4739C16.63 23.4739 15.9982 23.3248 15.2628 23.0224C14.525 22.7214 13.8469 22.5724 13.2269 22.5724C12.5767 22.5724 11.8793 22.7214 11.1334 23.0224C10.3864 23.3248 9.78456 23.4824 9.32444 23.498C8.62466 23.5278 7.92716 23.2197 7.23093 22.5724C6.78656 22.1848 6.23075 21.5204 5.5649 20.5791C4.85051 19.5739 4.26317 18.4084 3.80304 17.0795C3.31026 15.6442 3.06323 14.2543 3.06323 12.9087C3.06323 11.3673 3.3963 10.0379 4.06342 8.92385C4.58772 8.029 5.28522 7.32312 6.1582 6.80493C7.03118 6.28674 7.97443 6.02267 8.99024 6.00578C9.54605 6.00578 10.2749 6.1777 11.1807 6.51559C12.0839 6.85462 12.6639 7.02655 12.9181 7.02655C13.1082 7.02655 13.7525 6.82552 14.8447 6.42473C15.8775 6.05305 16.7492 5.89916 17.4633 5.95978C19.3984 6.11595 20.8522 6.87876 21.819 8.25303C20.0884 9.30163 19.2323 10.7703 19.2493 12.6544C19.265 14.122 19.7974 15.3432 20.8437 16.3129C21.3179 16.7629 21.8474 17.1107 22.4366 17.3578C22.3088 17.7283 22.1739 18.0832 22.0306 18.424ZM17.5925 0.960131C17.5925 2.11039 17.1723 3.18439 16.3347 4.17847C15.3238 5.36023 14.1012 6.04311 12.7753 5.93536C12.7584 5.79736 12.7486 5.65213 12.7486 5.49951C12.7486 4.39526 13.2293 3.21349 14.083 2.24724C14.5092 1.75801 15.0513 1.35122 15.7086 1.02671C16.3645 0.707053 16.9849 0.530273 17.5684 0.5C17.5854 0.653772 17.5925 0.807554 17.5925 0.960116V0.960131Z" fill="white"/>
</svg>
